<svg width="512" height="512" viewBox="0 0 512 512" fill="none" xmlns="http://www.w3.org/2000/svg">
<path d="M256 0C114.847 0 0 114.847 0 256C0 397.153 114.847 512 256 512C397.153 512 512 397.153 512 256C511.984 114.831 397.153 0 256 0ZM261.417 322.872C258.278 320.211 253.69 320.211 250.551 322.872C244.831 327.732 216.262 353.034 216.262 373.189C216.262 395.097 234.076 412.911 255.984 412.911C277.048 412.911 294.288 396.42 295.578 375.675C305.106 381.65 315.304 386.478 325.963 390.047C322.633 402.108 316.323 413.054 307.353 422.025C292.997 436.365 273.718 443.981 253.323 443.248C237.151 442.674 221.473 436.636 209.124 426.167C176.35 398.396 174.852 349.034 204.615 319.271L234.219 289.651C246.233 277.637 265.719 277.637 277.733 289.651L307.353 319.271L307.401 319.223C325.166 336.989 349.098 346.358 374.368 345.338C420.67 343.458 458.305 305.648 459.994 259.346C461.523 217.155 433.975 180.572 394.381 169.753C396.293 160.464 397.312 150.952 397.312 141.328C397.312 138.954 397.248 136.612 397.137 134.27C453.716 146.522 495.206 197.095 495.206 255.984C495.206 324.672 439.328 380.55 370.64 380.55C335.953 380.55 302.796 365.987 279.247 340.558C271.822 331.938 264.11 325.166 261.417 322.872ZM278.944 373.205C278.944 385.856 268.651 396.149 256 396.149C243.349 396.149 233.056 385.856 233.056 373.205C233.056 366.418 242.441 354.34 251.953 344.589C254.184 342.311 257.848 342.311 260.079 344.589C269.559 354.34 278.944 366.402 278.944 373.205ZM475.847 161.739C455.246 138.715 427.171 122.384 395.145 116.775C389.553 85.004 373.333 56.8499 350.277 36.1526C406.506 60.3553 451.645 105.51 475.847 161.739ZM256 16.7777C324.688 16.7777 380.566 72.6557 380.566 141.344C380.566 176.031 366.003 209.204 340.574 232.737C331.938 240.162 325.166 247.874 322.888 250.567C320.227 253.706 320.227 258.294 322.888 261.433C327.748 267.153 353.05 295.722 373.221 295.722C395.129 295.722 412.943 277.908 412.943 256C412.943 234.936 396.452 217.696 375.707 216.406C381.682 206.862 386.525 196.649 390.094 185.973C422.63 194.896 445.128 225.281 443.216 260.095C441.208 296.901 411.158 326.76 374.336 328.56C353.575 329.564 333.882 321.948 319.303 307.369L319.255 307.417L289.587 277.749C277.574 265.735 277.574 246.249 289.587 234.235L319.255 204.567C356.029 167.793 354.022 106.689 313.2 72.5761C299.036 60.7376 281.382 53.5517 262.963 52.1815C236.514 50.1898 211.291 59.5904 192.777 78.1049C181.703 89.1785 173.88 102.69 169.785 117.588C160.496 115.676 150.968 114.656 141.344 114.656C138.97 114.656 136.628 114.72 134.286 114.831C146.522 58.2521 197.095 16.7777 256 16.7777ZM373.205 233.04C385.856 233.04 396.149 243.333 396.149 255.984C396.149 268.635 385.856 278.928 373.205 278.928C366.402 278.928 354.34 269.543 344.589 260.031C342.311 257.8 342.311 254.136 344.589 251.905C354.308 242.425 366.386 233.04 373.205 233.04ZM161.739 36.1367C138.715 56.7384 122.384 84.8128 116.775 116.839C85.004 122.431 56.8499 138.651 36.1526 161.707C60.3553 105.494 105.51 60.3393 161.739 36.1367ZM141.328 131.434C175.999 131.434 209.172 145.997 232.721 171.41C240.162 180.046 247.874 186.834 250.567 189.112C253.706 191.773 258.294 191.773 261.433 189.112C267.153 184.252 295.722 158.95 295.722 138.795C295.722 116.887 277.908 99.0731 256 99.0731C234.936 99.0731 217.696 115.564 216.406 136.309C206.878 130.334 196.68 125.506 186.021 121.937C190.403 106.068 199.979 92.0943 213.936 82.0564C223.831 74.9501 235.462 70.5047 247.555 69.1504C270.053 66.633 291.675 74.265 307.369 89.9593C335.698 118.289 335.698 164.384 307.369 192.697L277.749 222.317C265.735 234.331 246.249 234.331 234.235 222.317L204.631 192.697L204.567 192.761C186.802 174.995 162.854 165.61 137.584 166.646C91.2817 168.526 53.6473 206.352 51.9743 252.67C50.4447 294.845 78.0093 331.428 117.588 342.231C115.676 351.52 114.672 361.032 114.672 370.656C114.672 373.03 114.736 375.372 114.847 377.714C58.268 365.462 16.7777 314.889 16.7777 256C16.7618 187.312 72.6398 131.434 141.328 131.434ZM233.04 138.795C233.04 126.144 243.333 115.851 255.984 115.851C268.635 115.851 278.928 126.144 278.928 138.795C278.928 145.582 269.559 157.66 260.047 167.411C257.816 169.689 254.152 169.689 251.921 167.411C242.425 157.66 233.04 145.582 233.04 138.795ZM36.1367 350.245C56.7384 373.269 84.8129 389.601 116.839 395.209C122.431 426.98 138.651 455.134 161.707 475.831C105.494 451.629 60.3393 406.474 36.1367 350.245ZM256 495.222C187.312 495.222 131.434 439.344 131.434 370.656C131.434 336.049 145.965 302.876 171.315 279.358C179.998 271.901 186.834 264.126 189.128 261.433C191.789 258.294 191.789 253.706 189.128 250.567C184.268 244.847 158.966 216.278 138.811 216.278C116.902 216.278 99.0891 234.092 99.0891 256C99.0891 277.064 115.58 294.304 136.325 295.594C130.35 305.138 125.522 315.351 121.953 326.027C89.4175 317.104 66.9038 286.719 68.8158 251.889C70.8394 215.083 100.889 185.224 137.695 183.44C158.456 182.436 178.134 190.052 192.729 204.631L192.825 204.615L222.46 234.251C234.474 246.265 234.474 265.751 222.46 277.765L192.793 307.433C157.931 342.295 157.931 399.033 192.793 433.895C209.682 450.784 232.148 460.089 256.032 460.089C279.916 460.089 302.366 450.784 319.271 433.895C330.345 422.821 338.168 409.31 342.247 394.412C351.536 396.324 361.064 397.344 370.688 397.344C373.062 397.344 375.404 397.28 377.746 397.169C365.462 453.748 314.889 495.222 256 495.222ZM138.795 278.944C126.144 278.944 115.851 268.651 115.851 256C115.851 243.349 126.144 233.056 138.795 233.056C145.582 233.056 157.66 242.425 167.411 251.937C169.689 254.168 169.689 257.832 167.411 260.063C157.66 269.575 145.582 278.944 138.795 278.944ZM350.245 475.847C373.269 455.246 389.6 427.171 395.209 395.161C426.98 389.569 455.134 373.349 475.831 350.293C451.629 406.506 406.474 451.645 350.245 475.847Z" fill="#56DAB0"/>
</svg>
